<svg width="386" xmlns="http://www.w3.org/2000/svg" height="162" id="screenshot-0e1a58cc-f6aa-8052-8008-b043c64ce232" viewBox="0 0 386 162" xmlns:xlink="http://www.w3.org/1999/xlink" fill="none" version="1.1"><style>/* cyrillic-ext */
@font-face {
  font-family: 'Phudu';
  font-style: normal;
  font-weight: 400;
  font-display: block;
  src: url(https://design.penpot.app/internal/gfonts/font/phudu/v6/0FlJVPSHk0ya-7OUeO_U-Lwm7PkKtWzkQQ-v_38.woff2) format('woff2');
  unicode-range: U+0460-052F, U+1C80-1C8A, U+20B4, U+2DE0-2DFF, U+A640-A69F, U+FE2E-FE2F;
}
/* vietnamese */
@font-face {
  font-family: 'Phudu';
  font-style: normal;
  font-weight: 400;
  font-display: block;
  src: url(https://design.penpot.app/internal/gfonts/font/phudu/v6/0FlJVPSHk0ya-7OUeO_U-Lwm7PkKtWzkQw-v_38.woff2) format('woff2');
  unicode-range: U+0102-0103, U+0110-0111, U+0128-0129, U+0168-0169, U+01A0-01A1, U+01AF-01B0, U+0300-0301, U+0303-0304, U+0308-0309, U+0323, U+0329, U+1EA0-1EF9, U+20AB;
}
/* latin-ext */
@font-face {
  font-family: 'Phudu';
  font-style: normal;
  font-weight: 400;
  font-display: block;
  src: url(https://design.penpot.app/internal/gfonts/font/phudu/v6/0FlJVPSHk0ya-7OUeO_U-Lwm7PkKtWzkQg-v_38.woff2) format('woff2');
  unicode-range: U+0100-02BA, U+02BD-02C5, U+02C7-02CC, U+02CE-02D7, U+02DD-02FF, U+0304, U+0308, U+0329, U+1D00-1DBF, U+1E00-1E9F, U+1EF2-1EFF, U+2020, U+20A0-20AB, U+20AD-20C0, U+2113, U+2C60-2C7F, U+A720-A7FF;
}
/* latin */
@font-face {
  font-family: 'Phudu';
  font-style: normal;
  font-weight: 400;
  font-display: block;
  src: url(https://design.penpot.app/internal/gfonts/font/phudu/v6/0FlJVPSHk0ya-7OUeO_U-Lwm7PkKtWzkTA-v.woff2) format('woff2');
  unicode-range: U+0000-00FF, U+0131, U+0152-0153, U+02BB-02BC, U+02C6, U+02DA, U+02DC, U+0304, U+0308, U+0329, U+2000-206F, U+20AC, U+2122, U+2191, U+2193, U+2212, U+2215, U+FEFF, U+FFFD;
}
</style><g id="shape-0e1a58cc-f6aa-8052-8008-b043c64ce232"><defs><clipPath id="frame-clip-0e1a58cc-f6aa-8052-8008-b043c64ce232-render-1" class="frame-clip frame-clip-def"><rect rx="0" ry="0" x="0" y="0" width="386" height="162" transform="matrix(1.000000, 0.000000, 0.000000, 1.000000, 0.000000, 0.000000)"/></clipPath></defs><g class="frame-container-wrapper"><g class="frame-container-blur"><g class="frame-container-shadows"><g clip-path="url(#frame-clip-0e1a58cc-f6aa-8052-8008-b043c64ce232-render-1)" fill="none"><g class="fills" id="fills-0e1a58cc-f6aa-8052-8008-b043c64ce232"><rect rx="0" ry="0" x="0" y="0" width="386" height="162" transform="matrix(1.000000, 0.000000, 0.000000, 1.000000, 0.000000, 0.000000)" class="frame-background"/></g><g class="frame-children"><g id="shape-0e1a58cc-f6aa-8052-8008-b043c64ce233" rx="0" ry="0"><g id="shape-0e1a58cc-f6aa-8052-8008-b043c64ce234"><g class="fills" id="fills-0e1a58cc-f6aa-8052-8008-b043c64ce234"><path d="M96.5,22.914306640625C131.546630859375,22.914306640625,160,51.38690185546875,160,86.4571533203125C160,121.52740478515625,131.546630859375,150,96.5,150C61.453369140625,150,33,121.52740478515625,33,86.4571533203125C33,51.38690185546875,61.453369140625,22.914306640625,96.5,22.914306640625M74.671875,50.71429443359375C69.19580078125,50.71429443359375,64.75,55.16314697265625,64.75,60.64288330078125C64.75,66.12255859375,69.19580078125,70.5714111328125,74.671875,70.5714111328125C80.14794921875,70.5714111328125,84.59375,66.12255859375,84.59375,60.64288330078125C84.59375,55.16314697265625,80.14794921875,50.71429443359375,74.671875,50.71429443359375M118.328125,50.71429443359375C112.85205078125,50.71429443359375,108.40625,55.16314697265625,108.40625,60.64288330078125C108.40625,66.12255859375,112.85205078125,70.5714111328125,118.328125,70.5714111328125C123.80419921875,70.5714111328125,128.25,66.12255859375,128.25,60.64288330078125C128.25,55.16314697265625,123.80419921875,50.71429443359375,118.328125,50.71429443359375" style="fill: rgb(124, 92, 224); fill-opacity: 1;"/></g></g><g id="shape-0e1a58cc-f6aa-8052-8008-b043c64ce235"><g class="fills" id="fills-0e1a58cc-f6aa-8052-8008-b043c64ce235"><ellipse cx="64.75000000000045" cy="18.94285714285718" rx="7.9375" ry="7.942857142857179" transform="matrix(1.000000, 0.000000, 0.000000, 1.000000, 0.000000, 0.000000)" style="fill: rgb(91, 63, 196); fill-opacity: 1;"/></g></g><g id="shape-0e1a58cc-f6aa-8052-8008-b043c64ce236"><g class="fills" id="fills-0e1a58cc-f6aa-8052-8008-b043c64ce236"><ellipse cx="128.25000000000045" cy="18.94285714285718" rx="7.9375" ry="7.942857142857179" transform="matrix(1.000000, 0.000000, 0.000000, 1.000000, 0.000000, 0.000000)" style="fill: rgb(91, 63, 196); fill-opacity: 1;"/></g></g></g><g id="shape-0e1a58cc-f6aa-8052-8008-b04406186e78"><g class="fills" id="fills-0e1a58cc-f6aa-8052-8008-b04406186e78"><path d="M182.05859375,23L181,142.6177978515625"/></g><g id="strokes-177b3ffb-95cc-804c-8008-b072924f084c-0e1a58cc-f6aa-8052-8008-b04406186e78" class="strokes"><g class="stroke-shape"><path d="M182.05859375,23L181,142.6177978515625" style="fill: none; stroke-width: 15; stroke: rgb(124, 92, 224); stroke-opacity: 1;"/></g></g></g><g id="shape-0e1a58cc-f6aa-8052-8008-b04424ef2d91"><g transform="matrix(1.000000, 0.000000, 0.000000, 1.000000, 0.000000, 0.000000)" class="text-container" x="195" y="55" width="175.99999999999955" height="63" rx="0" ry="0"><defs><pattern patternUnits="objectBoundingBox" width="175.765625" height="63" id="fill-0-render-7-0"><g><rect width="175.765625" height="63" style="fill: rgb(124, 92, 224); fill-opacity: 1;"/></g></pattern></defs><g class="fills" id="fills-0e1a58cc-f6aa-8052-8008-b04424ef2d91"><text x="195" y="117" dominant-baseline="ideographic" textLength="175.765625" lengthAdjust="spacingAndGlyphs" style="text-transform: none; font-family: Phudu; letter-spacing: normal; font-style: normal; font-weight: 400; white-space: pre; font-size: 52px; text-decoration: none; direction: ltr; fill: rgb(124, 92, 224); fill-opacity: 1;">HELPING</text></g></g></g></g></g></g></g></g></g></svg>